HIERARCHY
ROOT Hips
{
    OFFSET 0.000000 0.000000 0.000000
    CHANNELS 6 Xposition Yposition Zposition Zrotation Xrotation Yrotation
    JOINT Spine
    {
        OFFSET -0.000000 7.236184 0.000000
        CHANNELS 3 Zrotation Xrotation Yrotation
        JOINT Spine1
        {
            OFFSET -0.000000 20.420147 0.000000
            CHANNELS 3 Zrotation Xrotation Yrotation
            JOINT Neck
            {
                OFFSET -0.000000 20.336288 1.848754
                CHANNELS 3 Zrotation Xrotation Yrotation
                JOINT Head
                {
                    OFFSET -0.000000 12.354461 -1.764923
                    CHANNELS 3 Zrotation Xrotation Yrotation
                    End Site
                    {
                        OFFSET -0.000000 22.061537 0.000000
                    }
                }
            }
            JOINT LeftShoulder
            {
                OFFSET 3.573296 18.396038 -0.314103
                CHANNELS 3 Zrotation Xrotation Yrotation
                JOINT LeftArm
                {
                    OFFSET 10.880760 0.000000 0.000000
                    CHANNELS 3 Zrotation Xrotation Yrotation
                    JOINT LeftForeArm
                    {
                        OFFSET 27.185530 0.000000 0.000000
                        CHANNELS 3 Zrotation Xrotation Yrotation
                        JOINT LeftHand
                        {
                            OFFSET 27.825975 0.000000 0.000000
                            CHANNELS 3 Zrotation Xrotation Yrotation
                            End Site
                            {
                                OFFSET 13.236923 0.000000 0.000000
                            }
                        }
                    }
                }
            }
            JOINT RightShoulder
            {
                OFFSET -3.474926 18.396038 -0.314103
                CHANNELS 3 Zrotation Xrotation Yrotation
                JOINT RightArm
                {
                    OFFSET -10.880760 0.000000 0.000000
                    CHANNELS 3 Zrotation Xrotation Yrotation
                    JOINT RightForeArm
                    {
                        OFFSET -27.185530 0.000000 0.000000
                        CHANNELS 3 Zrotation Xrotation Yrotation
                        JOINT RightHand
                        {
                            OFFSET -27.825975 0.000000 0.000000
                            CHANNELS 3 Zrotation Xrotation Yrotation
                            End Site
                            {
                                OFFSET -13.236923 0.000000 0.000000
                            }
                        }
                    }
                }
            }
        }
    }
    JOINT LeftUpLeg
    {
        OFFSET 8.824615 0.000000 0.000000
        CHANNELS 3 Zrotation Xrotation Yrotation
        JOINT LeftLeg
        {
            OFFSET -0.000000 -35.111282 0.000000
            CHANNELS 3 Zrotation Xrotation Yrotation
            JOINT LeftFoot
            {
                OFFSET -0.000000 -42.324711 0.000000
                CHANNELS 3 Zrotation Xrotation Yrotation
                JOINT LeftToeBase
                {
                    OFFSET -0.000000 -5.735999 13.236923
                    CHANNELS 3 Zrotation Xrotation Yrotation
                    End Site
                    {
                        OFFSET -0.000000 0.000000 3.529846
                    }
                }
            }
        }
    }
    JOINT RightUpLeg
    {
        OFFSET -8.824615 0.000000 0.000000
        CHANNELS 3 Zrotation Xrotation Yrotation
        JOINT RightLeg
        {
            OFFSET -0.000000 -35.111282 0.000000
            CHANNELS 3 Zrotation Xrotation Yrotation
            JOINT RightFoot
            {
                OFFSET -0.000000 -42.324711 0.000000
                CHANNELS 3 Zrotation Xrotation Yrotation
                JOINT RightToeBase
                {
                    OFFSET -0.000000 -5.735999 13.236923
                    CHANNELS 3 Zrotation Xrotation Yrotation
                    End Site
                    {
                        OFFSET -0.000000 0.000000 3.529846
                    }
                }
            }
        }
    }
}
MOTION
Frames:    8
Frame Time:    0.008333
-24.463070    84.104546    112.090446    -1.040121    -9.017805    -175.860031    -2.728063    -13.191156    -0.315501    0.970105    6.995240    -0.047830    2.828357    6.764478    -1.445557    4.080029    -19.566998    -0.495903    -1.407366    17.381611    -2.857504    -39.903595    42.793316    -40.950665    5.823197    -5.013046    -27.877016    12.895565    -3.370737    1.771475    8.603918    17.950083    -5.185280    31.864147    47.391701    42.650230    -3.153342    -10.684174    33.618233    -13.722973    -9.737176    -0.079209    -2.705687    -14.819808    -8.919171    0.084847    19.741343    7.490830    -2.628442    -10.323754    -10.429743    0.146682    -0.739579    -0.162811    -1.078054    -7.750484    -1.609087    2.883695    9.715487    -0.758308    -2.370982    -7.997692    -18.256222    -0.525609    -0.830562    0.569139
-24.450678    84.105530    112.079964    -1.022187    -9.023972    -175.852951    -2.722253    -13.181361    -0.294810    0.985713    6.944902    -0.038900    2.808971    6.799348    -1.443566    4.057992    -19.512589    -0.499849    -1.385815    17.356075    -2.830477    -40.076485    42.651848    -40.678089    6.260487    -5.097742    -28.887651    12.722614    -3.279998    1.869650    8.564696    17.908806    -5.148364    31.703743    47.337910    42.783981    -3.418083    -10.686289    34.619335    -13.514874    -9.623072    -0.124057    -2.680073    -14.816288    -8.903609    0.092245    19.733953    7.468851    -2.632583    -10.329302    -10.428293    0.144094    -0.739623    -0.159938    -1.049683    -7.707973    -1.616367    2.878317    9.636405    -0.805257    -2.351819    -7.983503    -18.198759    -0.526057    -0.829097    0.569623
-24.437803    84.106323    112.068024    -1.002833    -9.027297    -175.844543    -2.714598    -13.171123    -0.279198    1.001231    6.894233    -0.024814    2.789844    6.839045    -1.442214    4.035389    -19.456404    -0.504629    -1.362975    17.330351    -2.800999    -40.254940    42.518482    -40.405041    6.707692    -5.203883    -29.928072    12.585222    -3.196229    1.978191    8.521816    17.864792    -5.110790    31.546324    47.280064    42.921257    -3.694366    -10.694871    35.655319    -13.297931    -9.503556    -0.186211    -2.652271    -14.809613    -8.886644    0.099600    19.727427    7.444569    -2.636872    -10.336157    -10.426787    0.141702    -0.740313    -0.157283    -1.018994    -7.663091    -1.620277    2.873043    9.559575    -0.858186    -2.335178    -7.970717    -18.139828    -0.526622    -0.827173    0.570234
-24.424911    84.106911    112.054916    -0.983153    -9.027930    -175.835190    -2.705483    -13.160476    -0.262698    1.016430    6.844066    -0.011585    2.771457    6.882521    -1.441763    4.013203    -19.400230    -0.510171    -1.340040    17.305275    -2.769819    -40.434734    42.397221    -40.137829    7.153486    -5.331503    -30.972830    12.483698    -3.123783    2.094635    8.476795    17.819036    -5.073886    31.397167    47.219780    43.057423    -3.975118    -10.710666    36.701546    -13.077719    -9.381963    -0.265733    -2.623682    -14.800137    -8.869147    0.106580    19.721880    7.418888    -2.640918    -10.344168    -10.424929    0.139634    -0.741117    -0.154988    -0.987726    -7.617391    -1.620099    2.868570    9.487318    -0.916254    -2.321409    -7.959803    -18.081011    -0.526997    -0.824773    0.570638
-24.411552    84.107254    112.040070    -0.962903    -9.026353    -175.824524    -2.694703    -13.149055    -0.245779    1.031020    6.791904    0.003359    2.753576    6.930841    -1.442253    3.990065    -19.340546    -0.517004    -1.315538    17.280682    -2.736046    -40.625748    42.282169    -39.863091    7.620217    -5.489834    -32.073574    12.407348    -3.061108    2.224805    8.427389    17.769165    -5.035772    31.250008    47.155140    43.198563    -4.274578    -10.736126    37.810246    -12.843555    -9.253099    -0.367686    -2.593918    -14.787790    -8.851104    0.113472    19.717062    7.391507    -2.645221    -10.353691    -10.422840    0.137741    -0.742154    -0.152887    -0.955334    -7.569529    -1.615705    2.864897    9.417048    -0.982681    -2.309416    -7.950676    -18.019144    -0.527226    -0.822149    0.570884
-24.398724    84.107246    112.024376    -0.944127    -9.023205    -175.813400    -2.683321    -13.137660    -0.228701    1.043897    6.740665    0.019051    2.736964    6.981477    -1.443784    3.967646    -19.281721    -0.524801    -1.291513    17.258381    -2.702114    -40.817818    42.182304    -39.596153    8.083760    -5.672829    -33.167046    12.354568    -3.013355    2.362150    8.376368    17.717794    -4.998796    31.115116    47.090252    43.335598    -4.575777    -10.770084    38.918285    -12.608964    -9.124018    -0.486297    -2.565866    -14.773928    -8.834983    0.119501    19.713413    7.365323    -2.649404    -10.364177    -10.420391    0.136163    -0.743700    -0.151136    -0.924929    -7.523461    -1.607303    2.862552    9.353914    -1.053683    -2.299526    -7.944221    -17.957720    -0.527057    -0.819630    0.570699
-24.386251    84.106812    112.007584    -0.927036    -9.019144    -175.801834    -2.671281    -13.126121    -0.209975    1.054843    6.688685    0.035557    2.721409    7.034147    -1.446474    3.945029    -19.220863    -0.533873    -1.267407    17.238686    -2.666958    -41.017712    42.094330    -39.328449    8.560071    -5.885556    -34.287220    12.316442    -2.977651    2.511628    8.322395    17.663572    -4.962112    30.988026    47.024467    43.473305    -4.889003    -10.814174    40.059029    -12.366971    -8.990876    -0.623483    -2.539825    -14.759055    -8.821378    0.124741    19.711163    7.340837    -2.653724    -10.375942    -10.417583    0.134824    -0.745793    -0.149650    -0.896668    -7.479313    -1.595372    2.861486    9.297305    -1.130522    -2.290874    -7.940753    -17.894829    -0.526442    -0.817640    0.570031
-24.374475    84.105850    111.989975    -0.912630    -9.014921    -175.790054    -2.658916    -13.114322    -0.190335    1.062834    6.635764    0.053695    2.707246    7.088425    -1.450272    3.922305    -19.159267    -0.544178    -1.243430    17.222078    -2.630788    -41.226200    42.018299    -39.060558    9.045388    -6.124944    -35.426476    12.289552    -2.951856    2.673131    8.266214    17.606920    -4.925780    30.869904    46.959965    43.610424    -5.213457    -10.869067    41.223537    -12.119358    -8.854712    -0.776589    -2.517535    -14.744074    -8.810883    0.129784    19.710449    7.318898    -2.658340    -10.388758    -10.414783    0.133994    -0.748585    -0.148729    -0.871899    -7.439195    -1.581075    2.861581    9.249609    -1.211312    -2.283047    -7.941012    -17.831190    -0.525377    -0.815915    0.568876
